<svg xmlns="http://www.w3.org/2000/svg" viewBox="0 0 512 512" fill="none">
  <!-- Z-shaped intestine favicon -->
  <defs>
    <linearGradient id="tubeGrad" x1="0%" y1="0%" x2="100%" y2="100%">
      <stop offset="0%" stop-color="#8250dc"/>
      <stop offset="100%" stop-color="#7040c8"/>
    </linearGradient>
  </defs>

  <!-- Main intestinal tube path -->
  <path d="M365,52 C310,42 250,48 225,72 C205,95 228,118 275,128 C345,142 410,162 428,198 C445,235 395,268 320,282 C248,296 165,298 128,330 C95,360 88,405 108,435 C130,462 200,470 268,460 C320,452 348,458 355,482"
        stroke="#8250dc" stroke-width="40" stroke-linecap="round" stroke-linejoin="round" fill="none"/>

  <!-- Villi lines along the path - outer spikes -->
  <!-- Top section villi -->
  <g stroke="#8250dc" stroke-width="2" stroke-linecap="round" opacity="0.9">
    <line x1="350" y1="32" x2="358" y2="58"/>
    <line x1="330" y1="30" x2="335" y2="55"/>
    <line x1="310" y1="28" x2="312" y2="52"/>
    <line x1="290" y1="30" x2="288" y2="50"/>
    <line x1="268" y1="35" x2="262" y2="52"/>
    <line x1="248" y1="42" x2="240" y2="56"/>
    <line x1="232" y1="52" x2="222" y2="62"/>

    <!-- Right curve villi -->
    <line x1="218" y1="78" x2="202" y2="72"/>
    <line x1="212" y1="92" x2="196" y2="88"/>
    <line x1="215" y1="108" x2="200" y2="108"/>
    <line x1="228" y1="122" x2="218" y2="132"/>
    <line x1="248" y1="128" x2="242" y2="145"/>
    <line x1="272" y1="132" x2="268" y2="150"/>
    <line x1="298" y1="136" x2="296" y2="155"/>
    <line x1="322" y1="140" x2="322" y2="160"/>
    <line x1="348" y1="148" x2="350" y2="168"/>
    <line x1="372" y1="155" x2="378" y2="175"/>
    <line x1="395" y1="165" x2="404" y2="182"/>
    <line x1="415" y1="178" x2="428" y2="192"/>
    <line x1="430" y1="195" x2="448" y2="205"/>

    <!-- Top outer edge -->
    <line x1="380" y1="48" x2="388" y2="30"/>
    <line x1="340" y1="50" x2="345" y2="28"/>
    <line x1="300" y1="48" x2="298" y2="25"/>
    <line x1="260" y1="52" x2="252" y2="30"/>
    <line x1="235" y1="62" x2="222" y2="42"/>
    <line x1="222" y1="80" x2="204" y2="68"/>

    <!-- Upper inner villi -->
    <line x1="240" y1="115" x2="232" y2="98"/>
    <line x1="268" y1="118" x2="265" y2="98"/>
    <line x1="300" y1="122" x2="300" y2="102"/>
    <line x1="335" y1="130" x2="338" y2="108"/>
    <line x1="368" y1="140" x2="375" y2="118"/>
    <line x1="400" y1="152" x2="412" y2="132"/>
    <line x1="422" y1="170" x2="440" y2="155"/>

    <!-- Middle sweep villi - outer -->
    <line x1="438" y1="215" x2="458" y2="222"/>
    <line x1="428" y1="238" x2="448" y2="248"/>
    <line x1="408" y1="258" x2="425" y2="272"/>
    <line x1="382" y1="272" x2="395" y2="290"/>
    <line x1="352" y1="280" x2="360" y2="300"/>
    <line x1="320" y1="286" x2="322" y2="308"/>
    <line x1="288" y1="290" x2="285" y2="312"/>
    <line x1="255" y1="294" x2="248" y2="315"/>
    <line x1="222" y1="296" x2="212" y2="316"/>
    <line x1="192" y1="298" x2="178" y2="316"/>
    <line x1="162" y1="302" x2="145" y2="318"/>
    <line x1="140" y1="315" x2="122" y2="328"/>

    <!-- Middle sweep villi - inner -->
    <line x1="430" y1="200" x2="448" y2="190"/>
    <line x1="425" y1="222" x2="445" y2="215"/>
    <line x1="412" y1="245" x2="430" y2="240"/>
    <line x1="392" y1="262" x2="408" y2="258"/>
    <line x1="365" y1="272" x2="375" y2="262"/>
    <line x1="338" y1="278" x2="342" y2="265"/>
    <line x1="308" y1="282" x2="308" y2="268"/>
    <line x1="278" y1="285" x2="272" y2="270"/>
    <line x1="248" y1="288" x2="238" y2="272"/>
    <line x1="218" y1="290" x2="205" y2="276"/>
    <line x1="190" y1="292" x2="175" y2="280"/>

    <!-- Lower section villi -->
    <line x1="118" y1="338" x2="98" y2="332"/>
    <line x1="108" y1="358" x2="85" y2="355"/>
    <line x1="98" y1="378" x2="72" y2="378"/>
    <line x1="92" y1="398" x2="68" y2="402"/>
    <line x1="95" y1="418" x2="72" y2="425"/>
    <line x1="105" y1="435" x2="85" y2="445"/>
    <line x1="120" y1="448" x2="105" y2="462"/>
    <line x1="142" y1="458" x2="132" y2="475"/>
    <line x1="168" y1="465" x2="162" y2="482"/>
    <line x1="195" y1="468" x2="192" y2="488"/>
    <line x1="222" y1="468" x2="222" y2="490"/>
    <line x1="248" y1="465" x2="252" y2="488"/>
    <line x1="275" y1="460" x2="282" y2="480"/>
    <line x1="300" y1="456" x2="310" y2="475"/>
    <line x1="325" y1="454" x2="338" y2="472"/>
    <line x1="345" y1="458" x2="358" y2="475"/>

    <!-- Lower inner villi -->
    <line x1="135" y1="328" x2="148" y2="340"/>
    <line x1="120" y1="348" x2="138" y2="355"/>
    <line x1="112" y1="368" x2="132" y2="372"/>
    <line x1="108" y1="388" x2="128" y2="390"/>
    <line x1="110" y1="408" x2="132" y2="408"/>
    <line x1="118" y1="425" x2="140" y2="422"/>
    <line x1="135" y1="440" x2="155" y2="435"/>
    <line x1="158" y1="452" x2="175" y2="445"/>
    <line x1="185" y1="460" x2="198" y2="450"/>
    <line x1="215" y1="462" x2="225" y2="450"/>
    <line x1="242" y1="460" x2="250" y2="448"/>
    <line x1="268" y1="455" x2="275" y2="442"/>
    <line x1="295" y1="452" x2="298" y2="438"/>
    <line x1="318" y1="450" x2="318" y2="435"/>
    <line x1="340" y1="452" x2="338" y2="438"/>
  </g>

  <!-- Bacteria dots -->
  <circle cx="340" cy="48" r="9" fill="#50d2b4"/>
  <circle cx="240" cy="108" r="9" fill="#50d2b4"/>
  <circle cx="415" cy="195" r="9" fill="#50d2b4"/>
  <circle cx="248" cy="290" r="9" fill="#50d2b4"/>
  <circle cx="95" cy="388" r="9" fill="#50d2b4"/>
  <circle cx="218" cy="468" r="9" fill="#50d2b4"/>
</svg>
