<svg xmlns="http://www.w3.org/2000/svg" viewBox="-44 -44 88 88" id="logo">
  <path
    fill="none"
    stroke="currentColor"
    stroke-width="3"
    transform="rotate(22.5)"
    d="
      M 44.00 0.00
      L 43.97 -0.77
      L 43.86 -1.53
      L 43.69 -2.29
      L 43.45 -3.04
      L 43.13 -3.77
      L 42.74 -4.49
      L 42.27 -5.19
      L 41.71 -5.86
      L 41.07 -6.50
      L 40.32 -7.11
      L 39.47 -7.67
      L 38.55 -8.19
      L 37.73 -8.71
      L 37.01 -9.23
      L 36.35 -9.74
      L 35.77 -10.26
      L 35.25 -10.78
      L 34.78 -11.30
      L 34.36 -11.83
      L 33.99 -12.37
      L 33.67 -12.92
      L 33.39 -13.49
      L 33.14 -14.07
      L 32.94 -14.67
      L 32.78 -15.29
      L 32.66 -15.93
      L 32.58 -16.60
      L 32.54 -17.30
      L 32.55 -18.04
      L 32.59 -18.82
      L 32.69 -19.64
      L 32.84 -20.52
      L 33.05 -21.46
      L 33.33 -22.48
      L 33.54 -23.48
      L 33.64 -24.44
      L 33.64 -25.35
      L 33.56 -26.22
      L 33.40 -27.04
      L 33.17 -27.83
      L 32.87 -28.57
      L 32.51 -29.27
      L 32.10 -29.93
      L 31.63 -30.55
      L 31.11 -31.11
      L 30.55 -31.63
      L 29.93 -32.10
      L 29.27 -32.51
      L 28.57 -32.87
      L 27.83 -33.17
      L 27.04 -33.40
      L 26.22 -33.56
      L 25.35 -33.64
      L 24.44 -33.64
      L 23.48 -33.54
      L 22.48 -33.33
      L 21.46 -33.05
      L 20.52 -32.84
      L 19.64 -32.69
      L 18.82 -32.59
      L 18.04 -32.55
      L 17.30 -32.54
      L 16.60 -32.58
      L 15.93 -32.66
      L 15.29 -32.78
      L 14.67 -32.94
      L 14.07 -33.14
      L 13.49 -33.39
      L 12.92 -33.67
      L 12.37 -33.99
      L 11.83 -34.36
      L 11.30 -34.78
      L 10.78 -35.25
      L 10.26 -35.77
      L 9.74 -36.35
      L 9.23 -37.01
      L 8.71 -37.73
      L 8.19 -38.55
      L 7.67 -39.47
      L 7.11 -40.32
      L 6.50 -41.07
      L 5.86 -41.71
      L 5.19 -42.27
      L 4.49 -42.74
      L 3.77 -43.13
      L 3.04 -43.45
      L 2.29 -43.69
      L 1.53 -43.86
      L 0.77 -43.97
      L 0.00 -44.00
      L -0.77 -43.97
      L -1.53 -43.86
      L -2.29 -43.69
      L -3.04 -43.45
      L -3.77 -43.13
      L -4.49 -42.74
      L -5.19 -42.27
      L -5.86 -41.71
      L -6.50 -41.07
      L -7.11 -40.32
      L -7.67 -39.47
      L -8.19 -38.55
      L -8.71 -37.73
      L -9.23 -37.01
      L -9.74 -36.35
      L -10.26 -35.77
      L -10.78 -35.25
      L -11.30 -34.78
      L -11.83 -34.36
      L -12.37 -33.99
      L -12.92 -33.67
      L -13.49 -33.39
      L -14.07 -33.14
      L -14.67 -32.94
      L -15.29 -32.78
      L -15.93 -32.66
      L -16.60 -32.58
      L -17.30 -32.54
      L -18.04 -32.55
      L -18.82 -32.59
      L -19.64 -32.69
      L -20.52 -32.84
      L -21.46 -33.05
      L -22.48 -33.33
      L -23.48 -33.54
      L -24.44 -33.64
      L -25.35 -33.64
      L -26.22 -33.56
      L -27.04 -33.40
      L -27.83 -33.17
      L -28.57 -32.87
      L -29.27 -32.51
      L -29.93 -32.10
      L -30.55 -31.63
      L -31.11 -31.11
      L -31.63 -30.55
      L -32.10 -29.93
      L -32.51 -29.27
      L -32.87 -28.57
      L -33.17 -27.83
      L -33.40 -27.04
      L -33.56 -26.22
      L -33.64 -25.35
      L -33.64 -24.44
      L -33.54 -23.48
      L -33.33 -22.48
      L -33.05 -21.46
      L -32.84 -20.52
      L -32.69 -19.64
      L -32.59 -18.82
      L -32.55 -18.04
      L -32.54 -17.30
      L -32.58 -16.60
      L -32.66 -15.93
      L -32.78 -15.29
      L -32.94 -14.67
      L -33.14 -14.07
      L -33.39 -13.49
      L -33.67 -12.92
      L -33.99 -12.37
      L -34.36 -11.83
      L -34.78 -11.30
      L -35.25 -10.78
      L -35.77 -10.26
      L -36.35 -9.74
      L -37.01 -9.23
      L -37.73 -8.71
      L -38.55 -8.19
      L -39.47 -7.67
      L -40.32 -7.11
      L -41.07 -6.50
      L -41.71 -5.86
      L -42.27 -5.19
      L -42.74 -4.49
      L -43.13 -3.77
      L -43.45 -3.04
      L -43.69 -2.29
      L -43.86 -1.53
      L -43.97 -0.77
      L -44.00 -0.00
      L -43.97 0.77
      L -43.86 1.53
      L -43.69 2.29
      L -43.45 3.04
      L -43.13 3.77
      L -42.74 4.49
      L -42.27 5.19
      L -41.71 5.86
      L -41.07 6.50
      L -40.32 7.11
      L -39.47 7.67
      L -38.55 8.19
      L -37.73 8.71
      L -37.01 9.23
      L -36.35 9.74
      L -35.77 10.26
      L -35.25 10.78
      L -34.78 11.30
      L -34.36 11.83
      L -33.99 12.37
      L -33.67 12.92
      L -33.39 13.49
      L -33.14 14.07
      L -32.94 14.67
      L -32.78 15.29
      L -32.66 15.93
      L -32.58 16.60
      L -32.54 17.30
      L -32.55 18.04
      L -32.59 18.82
      L -32.69 19.64
      L -32.84 20.52
      L -33.05 21.46
      L -33.33 22.48
      L -33.54 23.48
      L -33.64 24.44
      L -33.64 25.35
      L -33.56 26.22
      L -33.40 27.04
      L -33.17 27.83
      L -32.87 28.57
      L -32.51 29.27
      L -32.10 29.93
      L -31.63 30.55
      L -31.11 31.11
      L -30.55 31.63
      L -29.93 32.10
      L -29.27 32.51
      L -28.57 32.87
      L -27.83 33.17
      L -27.04 33.40
      L -26.22 33.56
      L -25.35 33.64
      L -24.44 33.64
      L -23.48 33.54
      L -22.48 33.33
      L -21.46 33.05
      L -20.52 32.84
      L -19.64 32.69
      L -18.82 32.59
      L -18.04 32.55
      L -17.30 32.54
      L -16.60 32.58
      L -15.93 32.66
      L -15.29 32.78
      L -14.67 32.94
      L -14.07 33.14
      L -13.49 33.39
      L -12.92 33.67
      L -12.37 33.99
      L -11.83 34.36
      L -11.30 34.78
      L -10.78 35.25
      L -10.26 35.77
      L -9.74 36.35
      L -9.23 37.01
      L -8.71 37.73
      L -8.19 38.55
      L -7.67 39.47
      L -7.11 40.32
      L -6.50 41.07
      L -5.86 41.71
      L -5.19 42.27
      L -4.49 42.74
      L -3.77 43.13
      L -3.04 43.45
      L -2.29 43.69
      L -1.53 43.86
      L -0.77 43.97
      L -0.00 44.00
      L 0.77 43.97
      L 1.53 43.86
      L 2.29 43.69
      L 3.04 43.45
      L 3.77 43.13
      L 4.49 42.74
      L 5.19 42.27
      L 5.86 41.71
      L 6.50 41.07
      L 7.11 40.32
      L 7.67 39.47
      L 8.19 38.55
      L 8.71 37.73
      L 9.23 37.01
      L 9.74 36.35
      L 10.26 35.77
      L 10.78 35.25
      L 11.30 34.78
      L 11.83 34.36
      L 12.37 33.99
      L 12.92 33.67
      L 13.49 33.39
      L 14.07 33.14
      L 14.67 32.94
      L 15.29 32.78
      L 15.93 32.66
      L 16.60 32.58
      L 17.30 32.54
      L 18.04 32.55
      L 18.82 32.59
      L 19.64 32.69
      L 20.52 32.84
      L 21.46 33.05
      L 22.48 33.33
      L 23.48 33.54
      L 24.44 33.64
      L 25.35 33.64
      L 26.22 33.56
      L 27.04 33.40
      L 27.83 33.17
      L 28.57 32.87
      L 29.27 32.51
      L 29.93 32.10
      L 30.55 31.63
      L 31.11 31.11
      L 31.63 30.55
      L 32.10 29.93
      L 32.51 29.27
      L 32.87 28.57
      L 33.17 27.83
      L 33.40 27.04
      L 33.56 26.22
      L 33.64 25.35
      L 33.64 24.44
      L 33.54 23.48
      L 33.33 22.48
      L 33.05 21.46
      L 32.84 20.52
      L 32.69 19.64
      L 32.59 18.82
      L 32.55 18.04
      L 32.54 17.30
      L 32.58 16.60
      L 32.66 15.93
      L 32.78 15.29
      L 32.94 14.67
      L 33.14 14.07
      L 33.39 13.49
      L 33.67 12.92
      L 33.99 12.37
      L 34.36 11.83
      L 34.78 11.30
      L 35.25 10.78
      L 35.77 10.26
      L 36.35 9.74
      L 37.01 9.23
      L 37.73 8.71
      L 38.55 8.19
      L 39.47 7.67
      L 40.32 7.11
      L 41.07 6.50
      L 41.71 5.86
      L 42.27 5.19
      L 42.74 4.49
      L 43.13 3.77
      L 43.45 3.04
      L 43.69 2.29
      L 43.86 1.53
      L 43.97 0.77
      L 44.00 0.00
      z
    "
  />

  <path
    fill="currentColor"
    transform="scale(0.5)"
    d="
      M 0 50
      L -5 50
      C -12 50 -12 50 -14 15
      L -25 9
      C -21 -18 -21 -18 -8 -22
      A 18 18 0 0 0 8 -22
      C 21 -18 21 -18 25 9
      L 14 15
      C 12 50 12 50 5 50
      z
      M 0 -27
      A 11.5 11.5 0 0 1 0 -50
      A 11.5 11.5 0 0 1 0 -27
      z
    "
  />
</svg>
